HIERARCHY
ROOT hip
{
  OFFSET 0 0 0
  CHANNELS 6 Xposition Yposition Zposition Zrotation Yrotation Xrotation
  JOINT abdomen
  {
    OFFSET 0 20.6881 -0.73152
    CHANNELS 3 Zrotation Xrotation Yrotation
    JOINT chest
    {
      OFFSET 0 11.7043 -0.48768
      CHANNELS 3 Zrotation Xrotation Yrotation
      JOINT neck
      {
        OFFSET 0 22.1894 -2.19456
        CHANNELS 3 Zrotation Xrotation Yrotation
        JOINT head
        {
          OFFSET -0.24384 7.07133 1.2192
          CHANNELS 3 Zrotation Xrotation Yrotation
          JOINT leftEye
          {
            OFFSET 4.14528 8.04674 8.04672
            CHANNELS 3 Zrotation Xrotation Yrotation
            End Site
            {
              OFFSET 1 0 0
            }
          }
          JOINT rightEye
          {
            OFFSET -3.6576 8.04674 8.04672
            CHANNELS 3 Zrotation Xrotation Yrotation
            End Site
            {
              OFFSET 1 0 0
            }
          }
        }
      }
      JOINT rCollar
      {
        OFFSET -2.68224 19.2634 -4.8768
        CHANNELS 3 Zrotation Xrotation Yrotation
        JOINT rShldr
        {
          OFFSET -8.77824 -1.95073 1.46304
          CHANNELS 3 Zrotation Xrotation Yrotation
          JOINT rForeArm
          {
            OFFSET -28.1742 -1.7115 0.48768
            CHANNELS 3 Zrotation Xrotation Yrotation
            JOINT rHand
            {
              OFFSET -22.5879 0.773209 7.07136
              CHANNELS 3 Zrotation Xrotation Yrotation
              JOINT rThumb1
              {
                OFFSET -1.2192 -0.487915 3.41376
                CHANNELS 3 Zrotation Xrotation Yrotation
                JOINT rThumb2
                {
                  OFFSET -3.37035 -0.52449 3.41376
                  CHANNELS 3 Zrotation Xrotation Yrotation
                  End Site
                  {
                    OFFSET -1.78271 -1.18214 1.43049
                  }
                }
              }
              JOINT rIndex1
              {
                OFFSET -7.75947 0.938293 5.60832
                CHANNELS 3 Zrotation Xrotation Yrotation
                JOINT rIndex2
                {
                  OFFSET -2.54057 -0.884171 1.56538
                  CHANNELS 3 Zrotation Xrotation Yrotation
                  End Site
                  {
                    OFFSET -1.62519 -0.234802 1.16502
                  }
                }
              }
              JOINT rMid1
              {
                OFFSET -8.24714 1.18213 3.41376
                CHANNELS 3 Zrotation Xrotation Yrotation
                JOINT rMid2
                {
                  OFFSET -3.10165 -0.590103 1.0647
                  CHANNELS 3 Zrotation Xrotation Yrotation
                  End Site
                  {
                    OFFSET -2.48547 -0.328903 0.83742
                  }
                }
              }
              JOINT rRing1
              {
                OFFSET -8.82822 0.546677 1.51678
                CHANNELS 3 Zrotation Xrotation Yrotation
                JOINT rRing2
                {
                  OFFSET -2.60934 -0.819778 -0.0198488
                  CHANNELS 3 Zrotation Xrotation Yrotation
                  End Site
                  {
                    OFFSET -2.33842 -0.294052 0.168128
                  }
                }
              }
              JOINT rPinky1
              {
                OFFSET -8.27202 -0.0477905 -0.4584
                CHANNELS 3 Zrotation Xrotation Yrotation
                JOINT rPinky2
                {
                  OFFSET -1.82734 -0.647385 -0.700984
                  CHANNELS 3 Zrotation Xrotation Yrotation
                  End Site
                  {
                    OFFSET -1.69225 -0.51767 -0.607171
                  }
                }
              }
            }
          }
        }
      }
      JOINT lCollar
      {
        OFFSET 2.68224 19.2634 -4.8768
        CHANNELS 3 Zrotation Xrotation Yrotation
        JOINT lShldr
        {
          OFFSET 8.77824 -1.95073 1.46304
          CHANNELS 3 Zrotation Xrotation Yrotation
          JOINT lForeArm
          {
            OFFSET 28.1742 -1.7115 0.48768
            CHANNELS 3 Zrotation Xrotation Yrotation
            JOINT lHand
            {
              OFFSET 22.5879 0.773209 7.07136
              CHANNELS 3 Zrotation Xrotation Yrotation
              JOINT lThumb1
              {
                OFFSET 1.2192 -0.487915 3.41376
                CHANNELS 3 Zrotation Xrotation Yrotation
                JOINT lThumb2
                {
                  OFFSET 3.37035 -0.52449 3.41376
                  CHANNELS 3 Zrotation Xrotation Yrotation
                  End Site
                  {
                    OFFSET 1.78271 -1.18214 1.43049
                  }
                }
              }
              JOINT lIndex1
              {
                OFFSET 7.75947 0.938293 5.60832
                CHANNELS 3 Zrotation Xrotation Yrotation
                JOINT lIndex2
                {
                  OFFSET 2.54057 -0.884171 1.56538
                  CHANNELS 3 Zrotation Xrotation Yrotation
                  End Site
                  {
                    OFFSET 1.62519 -0.234802 1.16502
                  }
                }
              }
              JOINT lMid1
              {
                OFFSET 8.24714 1.18213 3.41376
                CHANNELS 3 Zrotation Xrotation Yrotation
                JOINT lMid2
                {
                  OFFSET 3.10165 -0.590103 1.0647
                  CHANNELS 3 Zrotation Xrotation Yrotation
                  End Site
                  {
                    OFFSET 2.48547 -0.328903 0.83742
                  }
                }
              }
              JOINT lRing1
              {
                OFFSET 8.82822 0.546677 1.51678
                CHANNELS 3 Zrotation Xrotation Yrotation
                JOINT lRing2
                {
                  OFFSET 2.60934 -0.819778 -0.0198488
                  CHANNELS 3 Zrotation Xrotation Yrotation
                  End Site
                  {
                    OFFSET 2.33842 -0.294052 0.168128
                  }
                }
              }
              JOINT lPinky1
              {
                OFFSET 8.27202 -0.0477905 -0.4584
                CHANNELS 3 Zrotation Xrotation Yrotation
                JOINT lPinky2
                {
                  OFFSET 1.82734 -0.647385 -0.700984
                  CHANNELS 3 Zrotation Xrotation Yrotation
                  End Site
                  {
                    OFFSET 1.69225 -0.51767 -0.607171
                  }
                }
              }
            }
          }
        }
      }
    }
  }
  JOINT rButtock
  {
    OFFSET -8.77824 4.35084 1.2192
    CHANNELS 3 Zrotation Xrotation Yrotation
    JOINT rThigh
    {
      OFFSET 0 -1.70687 -2.19456
      CHANNELS 3 Zrotation Xrotation Yrotation
      JOINT rShin
      {
        OFFSET 0 -36.8199 0.73152
        CHANNELS 3 Zrotation Xrotation Yrotation
        JOINT rFoot
        {
          OFFSET 0.73152 -45.1104 -5.12064
          CHANNELS 3 Zrotation Xrotation Yrotation
          End Site
          {
            OFFSET -1.1221 -3.69964 12.103
          }
        }
      }
    }
  }
  JOINT lButtock
  {
    OFFSET 8.77824 4.35084 1.2192
    CHANNELS 3 Zrotation Xrotation Yrotation
    JOINT lThigh
    {
      OFFSET 0 -1.70687 -2.19456
      CHANNELS 3 Zrotation Xrotation Yrotation
      JOINT lShin
      {
        OFFSET 0 -36.8199 0.73152
        CHANNELS 3 Zrotation Xrotation Yrotation
        JOINT lFoot
        {
          OFFSET -0.73152 -45.1104 -5.12064
          CHANNELS 3 Zrotation Xrotation Yrotation
          End Site
          {
            OFFSET 1.1221 -3.69964 12.103
          }
        }
      }
    }
  }
}
MOTION
Frames:	4
Frame Time:	0.00833333
52.9006 84.4267 81.3803 9.4368 -64.1896 -5.8649 -5.7951 12.909 -3.49486 3.46432 -5.5201 -1.03126 -14.8158 -1.53631 -9.85815 23.5677 6.5694 -17.1532 -0.0 0.0 0.0 -0.0 0.0 0.0 -2.03045e-14 -2.59169e-13 -4.25477e-13 79.792 13.7354 -1.69991 -16.2302 -8.90427 30.1568 -0.00905094 2.73699 0.384954 2.21695e-09 9.86848e-10 -1.05767e-09 3.83067e-09 1.7094e-09 -1.83947e-09 2.21695e-09 9.86847e-10 -1.05767e-09 7.73091 5.47488 0.417314 2.21695e-09 9.86847e-10 -1.05767e-09 2.90554 0.965183 0.102902 2.21696e-09 9.86847e-10 -1.05767e-09 10.2786 0.731801 0.0259123 2.21695e-09 9.8685e-10 -1.05766e-09 2.22167 -0.733487 -0.20892 -2.04259e-14 -2.59162e-13 -4.25809e-13 -72.2011 18.6134 0.34917 14.58 -7.43219 -26.7286 0.0182453 3.8486 -0.54169 2.7692e-09 -3.67386e-09 -6.85139e-10 4.78618e-09 -6.37833e-09 -1.20037e-09 2.7692e-09 -3.67386e-09 -6.85123e-10 -7.73091 5.47488 -0.417314 2.76921e-09 -3.67386e-09 -6.85138e-10 -2.90554 0.965183 -0.102902 2.7692e-09 -3.67386e-09 -6.85139e-10 -10.2786 0.731801 -0.0259123 2.76921e-09 -3.67386e-09 -6.85143e-10 -2.22167 -0.733487 0.20892 -2.03217e-16 0.0 -3.88251e-19 -9.52951 -31.93 -15.0539 -0.160272 26.5142 0.410123 -1.12642 3.13891 -16.8776 2.03217e-16 0.0 3.88251e-19 -4.79433 11.2634 5.58177 -0.0389796 3.89104 -0.358719 0.423608 1.12195 22.7572
52.3898 84.4766 81.492 9.9941 -64.7888 -6.354 -5.87731 12.8845 -3.47576 3.45377 -5.44125 -1.03186 -14.6362 -1.65121 -9.76176 23.4053 6.4697 -16.9537 -0.0 0.0 0.0 -0.0 0.0 0.0 -2.1089e-15 -9.953e-14 -2.37733e-13 80.0233 13.0065 -1.7496 -16.0454 -8.73032 29.7669 -0.0121765 3.14872 0.442982 1.27071e-09 5.7247e-10 -7.18286e-10 2.19446e-09 9.91505e-10 -1.248e-09 1.27071e-09 5.72474e-10 -7.18294e-10 7.73091 5.47488 0.417314 1.27071e-09 5.72475e-10 -7.18289e-10 2.90554 0.965183 0.102902 1.27072e-09 5.72475e-10 -7.18286e-10 10.2786 0.731801 0.0259123 1.27071e-09 5.72476e-10 -7.1828e-10 2.22167 -0.733487 -0.20892 -2.18265e-15 -9.95185e-14 -2.38013e-13 -72.226 18.2093 0.164646 14.7316 -7.56004 -27.0386 0.0139889 3.3443 -0.470545 1.9188e-09 -1.9253e-09 -4.84897e-11 3.31915e-09 -3.34497e-09 -9.34355e-11 1.9188e-09 -1.9253e-09 -4.84715e-11 -7.73091 5.47488 -0.417314 1.9188e-09 -1.9253e-09 -4.84872e-11 -2.90554 0.965183 -0.102902 1.9188e-09 -1.9253e-09 -4.84868e-11 -10.2786 0.731801 -0.0259123 1.9188e-09 -1.9253e-09 -4.84914e-11 -2.22167 -0.733487 0.20892 -2.03217e-16 0.0 -3.88251e-19 -9.25015 -31.8835 -14.8025 -0.161063 26.5838 0.410871 -1.03647 3.34102 -15.9666 2.03217e-16 0.0 3.88251e-19 -4.83657 11.5573 5.76796 -0.0392398 3.88922 -0.360959 0.35219 1.2939 22.8424
51.8623 84.5533 81.5539 10.2342 -65.4152 -6.5156 -5.9379 12.8481 -3.48185 3.45442 -5.36249 -1.03828 -14.479 -1.78055 -9.67021 23.2593 6.39697 -16.7616 -0.0 0.0 0.0 -0.0 0.0 0.0 7.9734e-15 -2.19723e-14 -1.30254e-13 80.2511 12.3303 -1.8286 -15.8724 -8.56928 29.4038 -0.0156694 3.57146 0.502593 7.94361e-10 4.8194e-10 -5.69905e-10 1.37047e-09 8.34867e-10 -9.89791e-10 7.94359e-10 4.81946e-10 -5.69914e-10 7.73091 5.47488 0.417314 7.94358e-10 4.81946e-10 -5.69908e-10 2.90554 0.965183 0.102902 7.94366e-10 4.81947e-10 -5.69905e-10 10.2786 0.731801 0.0259123 7.94357e-10 4.81947e-10 -5.69898e-10 2.22167 -0.733487 -0.20892 7.92982e-15 -2.19587e-14 -1.30502e-13 -72.2716 17.8494 0.0179018 14.8918 -7.69703 -27.3662 0.00958261 2.79382 -0.392961 1.42671e-09 -1.1936e-09 2.09513e-10 2.47039e-09 -2.07465e-09 3.56328e-10 1.4267e-09 -1.1936e-09 2.09532e-10 -7.73091 5.47488 -0.417314 1.42671e-09 -1.1936e-09 2.09516e-10 -2.90554 0.965183 -0.102902 1.4267e-09 -1.1936e-09 2.09517e-10 -10.2786 0.731801 -0.0259123 1.42671e-09 -1.1936e-09 2.09513e-10 -2.22167 -0.733487 0.20892 -2.03217e-16 0.0 -3.88251e-19 -8.9485 -31.8248 -14.5415 -0.1619 26.6816 0.413627 -0.989149 3.43051 -15.2053 2.03217e-16 0.0 3.88251e-19 -4.84303 11.8447 5.92826 -0.0393313 3.89433 -0.361804 0.173228 1.7179 22.8429
51.3006 84.6512 81.5702 10.143 -66.0751 -6.3778 -5.97879 12.7954 -3.52637 3.4703 -5.27739 -1.05447 -14.3503 -1.93876 -9.58441 23.1366 6.36005 -16.5756 -0.0 0.0 0.0 -0.0 0.0 0.0 3.93596e-15 -8.26776e-14 -1.45144e-13 80.4733 11.7002 -1.93281 -15.7137 -8.424 29.0707 -0.0197457 4.04603 0.569554 1.0857e-09 9.56267e-10 -7.62628e-10 1.87322e-09 1.65722e-09 -1.32651e-09 1.0857e-09 9.56272e-10 -7.62637e-10 7.73091 5.47488 0.417314 1.0857e-09 9.56271e-10 -7.6263e-10 2.90554 0.965183 0.102902 1.0857e-09 9.56271e-10 -7.62628e-10 10.2786 0.731801 0.0259123 1.08569e-09 9.56272e-10 -7.62621e-10 2.22167 -0.733487 -0.20892 3.89488e-15 -8.26657e-14 -1.45398e-13 -72.3465 17.5073 -0.0879818 15.0635 -7.84592 -27.7185 0.00517157 2.17259 -0.305466 1.52186e-09 -2.18621e-09 -1.52523e-10 2.63519e-09 -3.79379e-09 -2.69933e-10 1.52186e-09 -2.1862e-09 -1.52506e-10 -7.73091 5.47488 -0.417314 1.52187e-09 -2.18621e-09 -1.52521e-10 -2.90554 0.965183 -0.102902 1.52186e-09 -2.1862e-09 -1.52517e-10 -10.2786 0.731801 -0.0259123 1.52187e-09 -2.1862e-09 -1.52523e-10 -2.22167 -0.733487 0.20892 -2.03217e-16 0.0 -3.88251e-19 -8.63056 -31.7625 -14.288 -0.162898 26.8286 0.42033 -0.985803 3.38778 -14.6174 2.03217e-16 0.0 3.88251e-19 -4.81687 12.171 6.05709 -0.0397894 3.81147 -0.361388 -0.19172 2.56488 22.7189
